<?xml version="1.0" standalone="no"?>
<!DOCTYPE svg PUBLIC "-//W3C//DTD SVG 20010904//EN"
 "http://www.w3.org/TR/2001/REC-SVG-20010904/DTD/svg10.dtd">
<svg version="1.0" xmlns="http://www.w3.org/2000/svg"
 width="981.000000pt" height="981.000000pt" viewBox="0 0 981.000000 981.000000"
 preserveAspectRatio="xMidYMid meet">
<metadata>
Created by potrace 1.11, written by Peter Selinger 2001-2013
</metadata>
<g transform="translate(0.000000,981.000000) scale(0.100000,-0.100000)"
fill="#000000" stroke="none">
<path d="M8357 9554 c-1 -1 -49 -5 -107 -8 -58 -3 -114 -8 -125 -10 -11 -2
-78 -14 -150 -26 -183 -32 -274 -62 -453 -150 -305 -149 -404 -221 -729 -527
-161 -151 -203 -185 -221 -178 -21 8 -346 74 -442 90 -94 16 -136 22 -225 31
-33 3 -82 10 -110 14 -27 5 -266 7 -530 5 -456 -4 -516 -6 -678 -20 -71 -6
-216 -41 -297 -70 -25 -9 -142 -50 -260 -90 -258 -88 -396 -138 -553 -199
-131 -52 -135 -52 -191 12 -92 105 -176 181 -346 309 -153 115 -209 151 -365
235 -268 144 -301 154 -580 173 -129 8 -211 17 -347 35 -129 18 -203 19 -330
4 -209 -24 -285 -47 -476 -140 -215 -104 -244 -124 -363 -244 -98 -99 -155
-182 -278 -410 -95 -175 -108 -208 -126 -340 -3 -25 -8 -56 -10 -70 -7 -36
-13 -78 -21 -130 -3 -25 -7 -52 -9 -60 -1 -8 -5 -42 -10 -75 -4 -33 -9 -69
-11 -80 -3 -11 -4 -59 -5 -106 0 -100 18 -166 87 -304 63 -129 126 -208 314
-395 133 -133 181 -174 245 -210 93 -52 195 -89 247 -90 36 0 68 20 68 43 0
22 -44 95 -82 135 -111 120 -262 404 -283 532 -3 19 -8 48 -11 64 -3 15 -7 91
-9 167 -2 129 -1 144 25 217 15 43 40 123 55 177 47 165 133 352 207 452 70
93 260 217 391 257 66 20 291 12 532 -19 17 -2 57 -7 90 -10 33 -3 67 -8 75
-10 8 -2 38 -7 65 -10 74 -10 235 -45 270 -60 17 -7 44 -26 61 -42 77 -74 205
-255 271 -382 l34 -64 -32 -19 c-18 -11 -73 -50 -123 -87 -154 -115 -135 -109
-198 -59 -157 128 -207 153 -343 173 -255 37 -370 22 -565 -73 -65 -32 -195
-180 -243 -277 -53 -107 -67 -167 -73 -306 -3 -84 -1 -109 11 -125 15 -18 16
-18 28 0 7 10 32 48 56 85 65 99 106 136 200 182 143 69 169 76 266 78 87 2
93 1 171 -38 86 -43 111 -64 114 -96 5 -42 -2 -54 -61 -116 -100 -104 -181
-218 -352 -494 -197 -317 -336 -587 -394 -765 -36 -108 -100 -393 -117 -515
-3 -22 -7 -49 -9 -60 -3 -11 -8 -47 -12 -80 -4 -32 -9 -68 -11 -80 -14 -67
-18 -243 -18 -755 0 -567 5 -793 28 -1210 9 -153 19 -204 71 -340 20 -52 41
-108 47 -125 12 -32 117 -199 171 -270 18 -24 41 -55 52 -71 26 -35 239 -300
274 -339 35 -39 179 -167 211 -187 75 -46 235 -53 340 -15 70 26 100 49 156
120 69 87 92 110 130 130 72 37 160 28 191 -20 16 -25 19 -103 8 -213 -19
-194 -26 -658 -12 -855 4 -60 10 -144 13 -185 18 -281 51 -345 220 -430 110
-54 103 -52 252 -100 131 -43 194 -49 230 -24 38 26 63 91 75 199 11 88 27
211 31 230 4 21 12 97 21 200 3 33 7 122 10 198 5 149 18 204 30 127 3 -25 8
-58 10 -75 10 -77 18 -296 19 -565 1 -278 2 -296 21 -321 30 -39 100 -59 270
-74 39 -3 88 -8 110 -10 120 -13 232 -12 277 1 83 25 95 60 103 299 6 168 8
193 19 350 4 44 8 125 11 180 13 254 19 300 35 290 7 -5 15 -34 27 -113 3 -20
5 -237 4 -481 -1 -264 3 -458 9 -480 10 -38 37 -60 100 -79 62 -19 120 -23
360 -27 208 -4 241 -2 289 14 98 34 97 30 92 269 -11 504 -6 901 12 919 13 12
26 -41 32 -128 3 -52 7 -116 10 -144 2 -27 7 -86 10 -130 3 -44 8 -102 10
-130 2 -27 7 -88 10 -135 6 -89 12 -161 20 -220 2 -19 7 -60 10 -90 17 -154
39 -180 148 -175 67 4 90 6 207 21 25 3 56 7 70 9 14 2 66 8 115 15 50 7 103
14 119 16 39 5 191 32 235 42 66 14 91 90 65 202 -7 30 -15 73 -18 95 -4 23
-8 50 -10 60 -3 19 -13 81 -21 135 -2 14 -11 79 -19 145 -31 245 -31 245 -41
410 -4 50 -8 96 -11 103 -2 7 1 10 7 6 24 -14 48 -96 79 -264 6 -30 12 -64 15
-75 2 -11 27 -135 55 -275 59 -296 79 -386 92 -415 5 -11 26 -31 46 -45 38
-25 94 -31 167 -17 17 3 66 12 110 21 44 8 91 17 105 20 150 27 373 82 410
101 34 17 59 67 55 109 -2 17 -6 55 -9 84 -3 29 -7 56 -10 60 -2 4 -7 25 -10
46 -6 37 -27 119 -92 356 -32 118 -29 108 -53 210 -10 47 -26 112 -34 145 -27
108 -30 135 -13 129 17 -7 75 -136 144 -324 98 -268 119 -338 161 -539 37
-176 49 -195 111 -184 41 7 269 78 320 100 120 51 192 99 231 156 66 96 73
131 54 287 -4 36 -9 74 -11 85 -5 22 -10 52 -19 102 -14 82 -81 406 -91 435
-2 9 -7 26 -9 37 -13 70 -81 320 -110 409 -20 58 -36 122 -37 143 -2 51 29 99
83 129 38 21 56 25 134 24 105 0 138 -14 225 -93 61 -56 127 -82 212 -83 69
-1 167 11 190 23 10 5 18 7 18 5 0 -8 90 33 121 55 73 52 271 553 372 944 53
203 75 297 82 356 3 24 7 55 10 69 28 146 24 1217 -5 1405 -20 123 -44 216
-109 413 -27 83 -52 177 -56 209 -10 87 -43 233 -75 331 -103 314 -177 518
-214 587 -165 312 -359 576 -629 858 -167 174 -189 201 -180 225 3 7 49 35
103 61 189 94 277 111 364 72 73 -32 160 -96 213 -158 63 -72 105 -99 122 -79
23 28 31 100 18 166 -20 97 -118 270 -194 342 -16 15 -74 50 -129 77 l-101 50
-104 -4 c-57 -2 -124 -7 -149 -10 -144 -19 -337 -124 -462 -249 -46 -47 -46
-47 -80 -33 -18 8 -32 19 -31 25 2 7 -4 9 -14 5 -10 -4 -14 -2 -10 4 4 7 -5
14 -23 18 -17 4 -28 10 -25 15 3 5 0 12 -6 16 -8 4 -9 3 -5 -4 4 -7 6 -12 4
-12 -7 0 -142 71 -154 81 -17 14 -10 41 27 107 72 127 165 231 298 332 18 14
45 34 59 45 51 39 112 75 126 75 8 0 17 4 20 9 6 9 130 45 212 60 82 16 272
35 339 34 48 0 192 -28 255 -49 83 -28 287 -156 333 -209 44 -51 177 -245 202
-294 32 -64 79 -206 90 -271 4 -25 9 -53 11 -64 8 -44 17 -167 17 -241 0 -58
-7 -106 -27 -175 -45 -156 -83 -261 -119 -330 -43 -84 -97 -233 -97 -270 0
-50 56 -65 130 -33 44 20 239 211 286 283 63 94 198 440 224 572 25 127 32
420 13 580 -29 262 -90 383 -329 655 -146 166 -476 377 -639 409 -11 2 -42 8
-70 13 -40 8 -390 12 -398 5z m529 -2931 c-7 -7 -76 137 -75 157 0 8 19 -23
41 -68 22 -46 37 -86 34 -89z m-1788 73 c104 -22 249 -79 449 -177 164 -81
190 -98 263 -165 77 -73 152 -168 254 -322 26 -40 49 -78 50 -85 1 -7 12 -31
24 -53 24 -46 53 -140 82 -269 16 -69 20 -457 7 -590 -11 -101 -31 -200 -53
-256 -55 -139 -253 -464 -331 -544 -131 -133 -370 -281 -603 -372 -190 -75
-205 -78 -410 -78 -102 0 -216 4 -255 8 -89 9 -160 15 -259 22 -214 14 -382
116 -553 335 -59 76 -164 237 -216 331 -66 118 -119 267 -132 371 -23 184 -32
315 -40 641 l-6 209 36 106 c69 206 188 407 309 522 95 90 256 195 346 224 25
8 74 24 110 37 83 28 184 55 235 62 22 3 72 13 110 21 105 22 131 25 240 32
55 4 101 7 102 9 9 6 185 -7 241 -19z m-3538 -500 c168 -6 224 -16 377 -62
176 -53 291 -127 415 -266 40 -46 113 -124 162 -174 91 -94 136 -155 136 -187
0 -9 9 -36 19 -60 35 -79 41 -126 37 -327 -5 -246 -36 -439 -91 -581 -33 -83
-114 -196 -240 -331 -30 -31 -57 -63 -62 -70 -10 -17 -119 -109 -156 -132 -36
-22 -105 -42 -177 -51 -30 -4 -64 -9 -75 -12 -64 -13 -121 -18 -210 -18 -93 0
-110 4 -245 49 -80 26 -151 53 -157 58 -7 6 -13 8 -13 5 0 -3 -46 17 -102 44
-57 28 -150 74 -208 102 -101 49 -195 116 -233 164 -10 13 -24 29 -30 36 -60
64 -140 267 -166 417 -6 36 -14 79 -17 95 -13 66 -13 291 1 365 27 142 40 178
148 400 111 230 213 381 292 437 77 54 315 114 420 107 17 -2 95 -5 175 -8z
m2136 -2987 c31 -16 44 -51 50 -133 7 -92 -12 -132 -76 -162 -45 -22 -58 -23
-120 -9 -46 10 -79 33 -101 69 -16 26 -16 31 -3 52 14 20 20 50 23 105 2 31
36 60 90 79 57 19 101 19 137 -1z m-543 -64 c63 -26 107 -121 93 -197 -14 -76
-172 -152 -251 -122 -62 24 -68 244 -8 296 40 35 114 45 166 23z"/>
</g>
</svg>
