<?xml version="1.0" encoding="utf-8"?>
<!-- Generator: Adobe Illustrator 22.0.1, SVG Export Plug-In . SVG Version: 6.00 Build 0)  -->
<svg class="jss10" color="#FFFFFF" version="1.1" xmlns="http://www.w3.org/2000/svg" viewBox="0 0 1340.1 1389.4"><g transform="translate(535.6054,152.46442)"><path fill="currentColor" d="M134.3,1236.5c-14.1-0.9-38.8-4.4-53.5-7.6c-6.3-1.4-22.3-6-35.5-10.3c-27-8.8-34.5-10.6-63-15 c-19.5-3-64.9-13-87-19.1c-12.2-3.4-32.6-11.2-42.5-16.3c-6.4-3.3-15.7-8.5-43.5-24.3c-7.7-4.4-22.3-11.9-32.5-16.7 c-13-6.1-22.1-11.2-30.5-17.1c-6.6-4.6-14.5-10.1-17.5-12.2c-3-2.1-10.2-8.3-16-13.9c-5.8-5.5-15.7-14.5-22-20 c-6.3-5.5-15.8-14-21-19c-5.2-5-13.6-12.4-18.5-16.5c-11.9-9.9-40.7-38.1-45.9-45c-4.6-6-16.6-25.3-16.6-26.7 c0-0.5-0.9-2.6-2.1-4.7c-1.5-2.8-1.8-4.1-0.9-4.6c0.8-0.5-0.8-3.9-5.1-11.1c-15.4-25.5-41.4-65.2-59.2-90.2 c-6.5-9.2-7.4-11.1-14.2-31c-12.5-36.4-23.4-67.4-31-88.2c-8.7-23.7-8.2-19-9-80c-0.3-23.1-1.1-57.7-1.8-77 c-0.7-19.3-1.2-52.8-1.1-74.5l0.1-39.5l3.1-11.5c5.2-19.4,10-47.3,17.2-100c3.4-24.8,4.4-30.1,8.1-41c2.3-6.9,4.8-13.2,5.5-14.1 c0.8-0.9,1.4-2.4,1.4-3.5c0.1-1.9,0.1-1.9,0.8,0c0.7,1.8,0.8,1.7,1.4-0.7c0.5-1.9,1.1-2.5,2.3-2.1c1,0.4,2,0,2.5-1 c1.2-2.1,2.8-2.1,2.8-0.1c0,2.8,2.4,0.9,3.4-2.7c3.8-14.8,15-43.2,17.7-45c0.5-0.3,7.5-14.2,15.7-31c8.2-16.8,17.7-35.4,21.2-41.5 c3.4-6.1,7.1-12.6,8.1-14.5c1-1.9,3.1-5,4.7-7c1.6-2,7.8-10.5,13.9-19.1c6.1-8.6,13.3-18.3,16-21.7c5.3-6.5,25-28.6,34.5-38.6 c3.1-3.3,5.5-6.3,5.2-6.8C-350.7,53-330,36.2-296.2,11c32.5-24.2,68.9-50.2,81-57.9c4.1-2.6,9.7-6.5,12.5-8.5 c2.7-2.1,12.6-7.7,22-12.5c20.3-10.5,68.3-34.5,69-34.5c0.3,0,6.5-2.9,13.8-6.4c7.3-3.5,16.2-7.1,19.8-8c3.6-0.8,11.2-2.7,17-4 c21.4-5.1,64.3-14.7,91.5-20.5l28-6l22.5-0.7c39.3-1.1,60.3-2.4,61-3.6c0.9-1.5,23.4-1.3,51.5,0.6c12.1,0.8,32.8,2.2,46,3.1 c18.6,1.2,26.7,2.2,36,4.4c6.6,1.5,15.5,3.6,19.7,4.5c4.3,0.9,8.1,2.3,8.5,3.1c1.3,2.3,29.7,12.6,85.7,31.2 c12.4,4.1,21.9,8.2,35.3,15c10.1,5.1,23.1,11.4,29,13.9c12.4,5.3,19,8.8,36.2,19.4c31.2,19.2,44.1,27,51.9,31.1 c8,4.2,9.4,5.5,28.9,26.8c14.6,16,22.3,23.5,26.6,26.2c5.1,3.3,6.1,3.6,6.3,2.1c1-6.3,1.2-6.5,4.2-5.9c2.4,0.5,2.8,0.3,2.3-1 c-0.7-1.8,0.2-1.4,5.3,2.4c1.7,1.3,3.4,2,3.7,1.7c1.6-1.6,6.1,3.5,12.8,14.8c4,6.7,11.1,17.4,15.8,23.8 c18.9,25.7,23.6,33.1,30.7,47.6c5.1,10.6,9.9,18.5,16.2,27c20.1,27.2,40.8,59.5,49.6,77.5c4.7,9.6,11.3,21.9,14.7,27.2 c7.2,11.5,10.9,19.9,15,33.9c7.3,25.3,13.4,66.9,16.1,109.4c0.6,9.9,2,26.5,3.1,37c3.9,38.4,5.8,59.5,7,79.5 c1.5,24.1,1.8,96,0.5,114.2c-0.8,11.2-0.7,12.8,0.6,12.8c0.8,0,2.1,1.4,2.8,3.1c1,2.5,1,4.7-0.3,12.8c-0.9,5.3-1.9,15.3-2.2,22.2 c-1.8,37.3-3.8,50.8-15.9,111.5c-4.5,22.6-4.7,23.2-10.5,34.1c-5.1,9.6-6.5,13.3-9.9,27.5c-4,16.5-9.3,32.7-12.7,38.5 c-2.3,3.9-6.1,4.3-7.5,0.8c-1.2-3.1-2.3-3-3.9,0.3c-0.7,1.5-2.1,3.3-3.1,4c-1,0.7-4,5.2-6.5,10c-20,37.1-41.7,68.5-66,95.8 c-5.9,6.6-15.4,18.3-21.2,26c-5.8,7.7-12.5,16.3-14.8,19c-5.5,6.5-24.4,23.5-35.4,31.7c-21.5,16.2-72.4,47.7-102.5,63.3 c-17.9,9.3-27.5,13.5-51.6,22.3c-20.6,7.5-41.9,18.8-41.9,22.2c0,0.5,2.3,0.9,5,0.9c2.7,0,5,0.4,5,0.8c0,1.3-4,4.6-9.2,7.6 c-4.8,2.7-6.3,5.6-3,5.7c1.5,0,1.6,0.1,0.2,0.9c-2.3,1.3-27.4,8.1-51.5,14c-11.5,2.8-26.6,6.6-33.4,8.6c-6.9,1.9-17.7,4.4-24,5.5 c-47,8-54.4,9-83,11c-8,0.6-23.1,1.9-33.5,3c-10.4,1.1-20.3,2.1-22,2.3C146.6,1237.1,140.3,1236.9,134.3,1236.5L134.3,1236.5z M96.8,1168c-1.2-3.2-0.5-4.4,2.3-4.4c1.2,0,2.8-0.4,3.6-0.9c1.1-0.7,0.8-1.1-1.5-1.7l-2.9-0.7l2.7-0.7c4.1-1.1,30.6,2.7,41.7,6 c18.5,5.5,33.6,6.3,54.1,2.7c5.4-0.9,11.6-1.1,22.5-0.5c15.6,0.8,29.7-0.6,47.2-4.6c7.3-1.7,14.3-5.6,14.3-8c0-0.8,0.4-1.5,1-1.5 s1-0.6,1-1.3c0-0.7,1.8-2.5,4-4c2.3-1.6,4-3.5,4-4.7c0-1.1,0.5-2.3,1.1-2.6c0.8-0.5,0.7-0.9-0.3-1.6c-2.1-1.4,0.4-2.5,10.6-4.9 c11.9-2.8,19.5-3.6,19.5-2.1c0,0.6-0.6,1.2-1.2,1.2c-0.7,0,0,0.7,1.5,1.5c1.5,0.8,2.8,2,2.8,2.6c0,1.6,10.5,0.2,20.7-2.7 c19.2-5.6,21.4-6.6,101.3-48.7c27.9-14.7,62.5-35.5,89.6-53.8c9.6-6.5,13.9-8.9,16.3-8.9c1.7,0,3.2,0.4,3.2,0.9 c0,1.7,8.6,3.5,9.5,2c0.3-0.5,1.4-0.9,2.5-0.9s1.9-0.5,1.9-1c0-0.6,0.9-1,1.9-1c1.3,0,4.3-3.4,9.4-10.8 c4.1-5.9,14.1-18.9,22.2-28.8c18-21.9,25.8-33.6,36-53.5c7.1-13.9,8-15.2,10.1-14.8c1.8,0.3,3.2-0.5,5.9-3.5 c1.9-2.2,3.5-4.5,3.5-5.3c0-0.7,1.4-2.4,3.1-3.7c2.3-1.8,4.2-5.3,7.9-14.8c2.6-6.8,7.5-17.8,10.9-24.4c11.6-23,20.6-47.9,41.7-116 c9.5-30.8,17.6-57.3,18-59c1.5-6.4,3.6-29.1,4.5-48.6c0.5-11.3,1.5-24.1,2.2-28.5c2.5-16.5,0.5-103.4-3.1-137.9 c-1-9.6-2.8-19.7-4.3-24.5c-1.2-3.9-2.2-12.2-3.7-31.4c-1.6-20.2-2.8-28.2-6.5-43.2c-1.9-7.6-3.2-14.2-3-14.6 c0.2-0.4,0.7-3.8,0.9-7.6c0.4-6.1,0.2-7.6-2.5-13.3c-1.6-3.5-3.6-9.6-4.4-13.4c-1.7-8.2-8.5-24.5-16.6-40 c-6-11.4-7.2-16.7-4.3-18.4c1-0.5,1.3-1.5,0.9-2.6c-0.4-0.9-1-1.4-1.5-1.2c-0.5,0.3-1.7-0.1-2.7-0.8c-1.6-1.2-2-1.1-3,0.2 c-1,1.4-1.4,1.2-2.9-1.1c-1-1.5-1.5-3.2-1.3-3.9c0.3-0.7,0.1-2.1-0.4-3c-0.7-1.4-0.5-1.8,1.2-1.8c1.1,0,2.4-0.8,2.7-1.8 c0.4-1,1.5-2.3,2.5-3.1c2.6-1.8,2.4-9.7-0.2-14c-1.1-1.8-1.8-3.7-1.5-4.1c0.3-0.4-8.1-9.5-18.5-20.2c-17.6-18-19.2-19.9-22.3-27 c-10.6-24.4-40.2-68.4-58.9-87.7c-8.1-8.3-23.9-21.8-19.2-16.5c1.1,1.2,1.7,2.4,1.4,2.7c-2,2-20.6-13.4-34-28 c-7.6-8.3-27.9-24.7-43.2-34.9c-13.8-9.2-24.1-15.2-52.1-30.4c-45.1-24.6-58.4-31.4-69-35.4c-6-2.3-12.1-5.1-13.5-6.4 c-1.4-1.3-3.5-2.6-4.7-3c-2.3-0.7-9.1-6.5-7.7-6.6c0.5,0-0.9-0.9-3.1-2c-7.1-3.5-24.4-8.8-49.4-15c-22.9-5.7-24.7-6-29.7-4.9 c-4.4,0.9-5.9,0.8-9.1-0.6c-4.4-2-11.4-2.3-52.1-2.5c-14.4-0.1-26.2-0.5-26.2-0.9c0-1.5-10.2-2.2-35.5-2.4 c-14.3-0.1-26.8-0.5-27.7-1c-1-0.4-1.8-1.4-1.8-2.2c0-0.8-0.7-1.4-1.5-1.4s-1.5-0.4-1.5-0.8c0-1.4-6.4-3.1-9.4-2.5 c-2,0.4-2.7,0.2-2.2-0.6c1.2-2-1.2-1.3-21.2,5.4c-14.1,4.8-19.7,6.3-20.7,5.5c-0.9-0.8-3-0.1-7.7,2.3c-9.4,5-29.1,8.8-70.4,13.6 c-18.6,2.2-23.2,3-30,5.7c-2.2,0.8-7.8,2.4-12.5,3.4c-9.7,2.1-29.1,10.9-73.5,33.3l-28,14.2l-10,9.5c-18.3,17.4-30.4,26.8-56,43.5 C-278.4,70.2-283,73.5-303.1,91c-11.8,10.3-32.3,32-42,44.6c-12,15.6-30.5,42.7-38.2,56.2c-4.3,7.5-8.5,13.7-9.7,14.2 c-2.8,1.3-3.4,2.8-7.8,18.7c-4.3,15.8-7.7,24-15.3,36.9c-7.3,12.5-9.5,17.3-12,26.4c-1.1,4.1-4.3,13.5-7,20.8 c-2.7,7.3-6.5,18.3-8.5,24.5c-2,6.2-5.2,15.4-7.1,20.5c-6.1,16.4-8.6,26.5-9,36.7c-0.4,9.7-2.5,23.3-7.2,45.9 c-1.4,6.8-3.3,18.5-4.3,26l-1.8,13.6l2.3,6.8c1.3,3.7,3,11.7,3.8,17.8c1.7,12.4,2,38.4,0.5,44.5c-1,4-2.4,47.8-2.4,74 c0,28.7,2.3,66.4,4.9,81.5l2.5,14.5l12,24c15,30,23.3,52.1,33,87.5c2.5,9.2,4,12.7,7.6,17.8c4.9,6.9,31.8,40.6,58.8,73.8 c17,20.8,24.2,30.5,22.7,30.5c-0.4,0-1.3-0.5-1.9-1.2c-2.2-2.2-2.6,0.2-0.4,3.1c2.8,3.9,3.9,8.1,2,8.1c-0.8,0-2-0.6-2.8-1.3 c-1.1-1-1.2-1-0.6,0.1c0.4,0.7,0.8,2.6,0.9,4.1c0.1,2.1-0.2,2.7-1.2,2.3c-0.9-0.4-1.3,0-1,0.9c0.3,0.8,6.7,5.8,14.4,11.1 c7.7,5.4,18.4,13.8,23.9,18.7c14,12.5,21.4,18.5,41.5,33.4c9.6,7.2,19.1,14.3,21.1,15.8c30.6,23.5,45.8,33.8,61.4,41.6 c6.1,3,16,8.4,22.2,11.8c22.2,12.6,70.5,36.6,71.7,35.6c0.6-0.5,3.4-0.8,6.1-0.6c3.7,0.2,4.6,0,3.7-0.8c-0.6-0.6-1.2-1.5-1.2-2 c0-1.7,3.3-0.6,13.2,4.6c7.4,3.9,11.7,5.5,15.5,5.8c4.2,0.4,5.1,0.2,4.6-1c-0.5-1.2,0.1-1.1,3.2,0.1c3.2,1.3,3.7,1.3,3.2,0.1 c-0.8-2,1.7-1,15.9,6.5c6.3,3.3,12.3,6,13.4,6c1,0,4.1,0.9,6.7,2.1c4.3,1.9,5.5,2,11,1c5.9-1.1,6.6-1,17.5,2.8 c22.8,7.8,27.4,9,48.9,12.4c1.4,0.2,4.6,0.5,7.2,0.5C97.7,1170.6,97.7,1170.6,96.8,1168L96.8,1168z M101.8,1046.5 c-12.3-1-19-3.3-21.5-7.3c-2.2-3.6-2.5-10.9-1.7-44.1c1.1-41.4-0.3-66.5-3.7-66.5c-1.1,0-2.1,8.9-2.6,23.5c-0.2,6-1.1,20.5-2,32 c-0.8,11.5-1.6,26.4-1.6,33c-0.1,17.9-2.3,22.5-11.7,24.6c-4.6,1-9.4,0.9-30.6-1c-27.7-2.5-30.8-3.3-34.1-9.1c-1.8-3-2-5.3-2-17 c0-7.4,0.2-20,0.5-28c0.5-15.3-1.5-47.7-3.3-52l-1-2.5l-0.7,3c-0.4,1.7-0.8,7.4-0.8,12.7c-0.1,11.2-1.8,32.8-3.1,40.8 c-0.5,3-1.6,11.7-2.5,19.4c-2.3,20.3-5.8,26.3-14.9,25.9c-5.4-0.2-27.8-7.5-39-12.8c-10.2-4.8-14.2-7.9-18.6-14.2 c-3.7-5.4-5.5-16-6.3-37.3c-0.3-8-1.1-19.3-1.7-25.2c-0.7-6.3-0.9-16.6-0.5-25c0.8-19.3,2.4-47.5,3.2-57.1 c0.8-9.1-0.2-11.8-5.2-14.1c-4.7-2.2-9.3-1.9-15.2,1c-4.9,2.4-6.4,4-15.6,16.7c-6,8.1-22.9,13-36.4,10.4c-8-1.5-10.1-2.5-16.7-8 c-10.7-8.9-14.2-12.5-23.4-24.1c-5.3-6.6-9.8-12.2-10.1-12.5c-1.9-1.7-12.4-15.7-20.4-27.3c-8-11.5-10.1-15.6-14.6-27.4 c-6.7-17.7-7.7-23-8.5-44.3c-0.3-9.6-0.8-19.5-1-22c-2.1-23-2.6-144.6-0.7-160c2.1-16.8,6.1-42.2,7.1-45.8c0.5-1.8,1.7-7.2,2.6-12 c5.6-30,17.3-54.9,50.4-107.7c15.7-25,23.7-35.6,32.8-43.9c3.6-3.2,4.2-4.4,4.2-7.6c0-4.5-3.1-7.3-13.8-12.3 c-6.2-2.9-7.5-3.1-15.7-3c-9.5,0.2-10.1,0.4-28.3,9c-5.9,2.8-8.3,4.6-12.6,9.9c-2.9,3.6-6.8,9.2-8.6,12.6c-2.9,5.4-3.4,5.9-4.5,4.4 c-3.8-5.2-2.3-24.8,2.8-37.9c3.5-9.1,5.4-12,14.8-23.2c5.6-6.6,8.2-8.9,13.4-11.4c15.3-7.5,27-9.8,43.3-8.2 c23.2,2.2,30.7,5,42.9,15.8c4.6,4.1,9,7.3,9.7,7c0.7-0.3,7-4.8,14-10.1c7-5.3,13.2-9.6,13.7-9.6c2.9,0-0.3-6.3-13.3-26 c-7.1-10.8-16.3-21.2-20.7-23.4c-8.1-4.2-56.9-11.1-86.3-12.3c-15.7-0.6-19.2,0.2-32.2,7.5c-22.2,12.4-27.5,18.7-39.5,46.7 c-2.7,6.4-5.7,15-6.5,19.1c-0.8,4.1-3,10.9-4.7,15.2c-3,7.4-3.2,8.3-3.1,20.3c0.2,22.4,2.4,32.3,11,49.5 c4.6,9.1,15.2,25.4,18.7,28.5c3.4,3,7.5,9.3,8.6,13.1c1.9,6.5-6.5,7.7-18.8,2.7c-14.2-5.8-21.2-10.7-35.1-24.8 c-20.8-21-27.6-29.6-33.8-42.8c-7.7-16.5-8.7-20.6-8-33.2c0.3-5.8,1.9-18.6,3.6-28.5c1.6-9.9,3.4-21.7,4-26.2 c1-7.4,1.8-9.5,8.9-22.5c17.7-32.2,19.4-34.9,28.7-44.6c11.3-11.8,18.5-17,31.6-22.8c5.7-2.5,12.4-5.9,14.9-7.5 c6.9-4.4,30-9.4,48.5-10.6c7-0.4,13.2-0.1,20.5,1c13.5,2.1,27.9,3.5,45.7,4.6c16.9,1,26.7,3.7,38.8,10.5c4.4,2.5,12.6,6.9,18.3,9.8 c5.7,2.9,13.3,7.6,17,10.4c3.7,2.8,11.9,9,18.2,13.7c11.8,8.7,20,16.2,29.2,26.8c6,6.9,5,6.9,19.1,1c12.1-5,38.6-14.5,61.2-21.8 c9.3-3,18.3-6.2,19.9-7c1.6-0.8,8.1-2.8,14.5-4.4c10-2.5,14.6-3,34.1-3.9c40.5-1.8,89.5-1.7,106.5,0.3c8.3,1,16.1,1.9,17.5,2.2 c1.4,0.3,4.8,0.7,7.6,1c2.8,0.3,8.9,1.4,13.5,2.4c4.6,1.1,10.4,2.3,12.9,2.7c4.8,0.8,6.6,1.1,10.3,2.1c1.2,0.3,3.4,0.7,4.7,1 c4.4,0.7,5.9,1.1,6.6,1.7c1.4,1.4,4.7-1.3,22.4-18.3c29.8-28.5,41.6-37.2,69.1-50.8c20.8-10.3,29.2-13.5,40.4-15 c3.9-0.5,11-1.9,16-3c10.3-2.4,53.9-4.4,66-3.1c17,1.8,29.6,7.1,49.5,20.9c13.9,9.6,23.7,18.4,30.2,26.9c2.4,3.1,6.7,8.4,9.7,11.7 c6.8,7.6,14.5,23.3,16.5,33.5c3.1,15.7,4,28.7,3.3,48.3c-0.8,23.8-3.4,35.4-12.5,55.9c-3.4,7.6-6.1,14.1-6.1,14.4 c0,0.4-1.5,3.7-3.2,7.3c-2.4,4.8-6.3,9.7-14.7,18.4c-13.1,13.5-16.3,15.7-22.6,16.2c-5.2,0.4-7.5-1.2-7.5-5.3 c0-3.8,6.2-20.1,10.9-28.6c2.2-4,4.6-9.6,5.5-12.6c0.8-3,3.1-10.8,5.1-17.4c3.6-12,3.6-12,3-26c-1.2-26.2-7.9-47.5-19.9-63.4 c-3.1-4.1-7.2-9.8-9.1-12.7c-2.6-3.9-5.8-6.8-11.7-10.7c-18.7-12.3-21.3-13.5-35.4-16.4c-13-2.7-13.4-2.7-28-1.4 c-17.7,1.5-26.8,3.2-38.7,7.3c-7.3,2.5-10.8,4.5-19.5,11.1c-18.5,14.1-24.1,20-33.9,36.3c-4.7,7.8-4.9,9.9-0.9,12.2 c1.9,1.1,4.4,2.3,5.7,2.7c1.3,0.4,4.1,1.9,6.1,3.2c2.1,1.4,4.9,2.6,6.4,2.8c1.4,0.2,3.1,0.8,3.7,1.5c0.9,0.9,0.6,0.9-1.1,0 c-3.8-2-2.5-0.3,1.8,2.2c4.9,2.9,6.6,2.6,9.9-1.9c5.5-7.6,21.9-18,36.5-23.2c5.9-2.1,9.3-2.6,21.2-3l14.2-0.4l9.8,4.7 c5.4,2.6,11.1,5.9,12.7,7.4c9.9,9.3,19.7,27.9,20.4,38.7c0.4,6.2-1.6,13.5-3.7,13.5c-2.3,0-7.1-3.8-11.1-8.9 c-4.6-5.8-9.9-9.9-19.2-14.9c-9.8-5.2-16.7-4.3-36.3,5.2c-17.5,8.4-17.7,6.1,3.5,27.5c9.9,10,19.5,20.3,21.2,22.9 c1.7,2.6,6.1,8.2,9.8,12.6c8.6,10.3,14.6,18.9,20.5,29.5c2.6,4.7,6.6,11.2,8.8,14.4c5.2,7.7,10.5,20,15.6,36.3 c2.2,7.2,5.8,17.7,8,23.4c5.3,14.3,9.6,32.6,10.5,44.4c0.2,2.2,2.1,9,4.3,15c5.7,15.6,11.2,36.8,12.2,47.1c0.5,4.9,0.9,16.1,1,25 c0.1,8.9,0.4,17.2,0.7,18.5c0.3,1.3,0.5,18.1,0.6,37.3c0.1,34.4-0.7,48.3-4.2,69c-1.3,7.7-9.9,40.5-14.5,55.5 c-5.5,17.8-23,61.1-26.3,65.1c-6.2,7.5-19.8,11.9-36.4,11.9c-10.2,0-15.1-2.1-22.7-9.5c-6.9-6.8-11.9-8.7-22.3-8.6 c-17.2,0.2-24.6,10.2-18.7,25.1c9.4,23.8,27,105.2,27,124.4c0,5-3.1,11.9-8.7,19.3c-2.6,3.5-15.9,10.8-25.8,14.1 c-15.9,5.5-28.9,9.2-30.5,8.7c-3.7-1.2-5.1-4.4-7.1-15.6c-2.5-14.4-6.4-28.7-12.8-46.4c-11.1-31-17.5-45.5-19.3-43.7 c-0.7,0.7-0.4,3.4,0.9,8.4c1.1,4,3.2,13,4.7,19.9c1.5,6.9,5,20.2,7.7,29.5c5.6,19.6,8.6,33,9.5,43c0.5,6.3,0.4,7.4-1.8,10.4 c-1.8,2.7-3.7,3.8-8.4,5.2c-8.2,2.5-35.9,8.3-53.4,11.4l-14.4,2.5l-4.5-2.3c-7.7-3.9-7.5-3.5-14.2-39.8c-1.2-6.3-3.2-16.2-4.5-22 c-1.3-5.8-3.6-17-5-25c-1.7-9.5-3.5-16-5.1-19l-2.5-4.5l0.6,10c1.4,24.9,7.5,71,11.6,88.8c1.6,7.1,0.4,15.3-2.7,17.3 c-2.8,1.8-21.5,4.9-57.8,9.5c-28.7,3.6-30.2,3.5-33.2-2.7c-2-4.2-3.8-19.5-6-49.9c-0.9-12.7-2.1-28-2.6-34.1 c-0.5-6.1-1-13.1-1-15.5c0-5.9-1.8-12.5-3.1-11.2c-2.1,2.1-3.2,42.1-1.8,69c0.7,14.1,1.3,29.6,1.4,34.4c0.1,10-0.9,11.8-8.4,15.2 c-3.9,1.8-6.9,2.1-23.5,2.3C121.8,1047.3,108.1,1047,101.8,1046.5L101.8,1046.5z M152.5,788.7c8.1-3.9,10.6-7.5,9.8-14.5 c-1.6-13.2-9.6-18.8-21.8-15.4c-6,1.7-8.9,7.9-8.8,18.8c0.1,6.6,1.8,11.4,4.8,13.1C139.8,792.4,146.1,791.7,152.5,788.7 L152.5,788.7z M207,781.1c5.8-3.9,7-11.4,3.8-23.6c-1.9-7.2-10.9-8.7-21.2-3.5c-4.5,2.3-5.5,4.2-5.7,11.1c-0.1,2.2-0.9,4.8-1.8,5.8 c-1.6,1.8-1.6,2.1,0.3,5.6c1.5,2.8,3.3,4.2,7.5,5.9C196.4,785.1,201.5,784.7,207,781.1L207,781.1z M341.3,694.2 c29.9-8.3,61.1-25.2,79.8-43.4c9.2-8.9,30.3-44.2,35.1-58.6c3.5-10.6,5.9-37.3,5.3-58.9c-0.5-15.5-0.9-18.5-4.1-30.9 c-3.5-13.6-5.4-18.6-8.5-22.2c-1.1-1.3-1.2-1.7-0.2-1.1c1.8,1,2,1.5-10.1-16.6c-7.1-10.5-12.3-17-18.6-23.1 c-8.4-8.1-9.7-8.9-29.2-18.6c-21.7-10.7-37.4-16.4-49.9-18.1c-11.3-1.5-37.1,0.1-50.5,3.1c-6.1,1.4-14.2,3-18.2,3.5 c-4,0.6-10.2,2.4-14,4.1c-3.7,1.7-8.4,3.2-10.4,3.4c-7.1,0.7-26.3,12-37.3,21.9c-7.1,6.4-17.4,20.3-23.3,31.2 c-2.4,4.4-6.2,13.7-8.5,20.6l-4.2,12.5l0.6,28.5c0.6,27,2.3,49.8,4.7,62c3.1,15.8,10,30.2,24.7,52.2c12.4,18.5,21.1,28,32.7,35.8 c11.3,7.5,23,11,38,11.1c4.9,0,12.8,0.7,17.5,1.4C304.8,695.9,335,696,341.3,694.2L341.3,694.2z M23.8,680c4.7-0.9,11.6-2,15.5-2.5 c3.8-0.5,9.3-2.1,12.1-3.4c4.8-2.4,18.4-13.8,18.4-15.4c0-0.4,2.9-3.7,6.4-7.2c7.4-7.5,17.7-21.1,21.1-27.8 c5.5-10.9,10.2-35.5,11.1-58.3c0.8-18.6-0.5-30.1-4.2-37c-1.4-2.7-2.3-5.5-2.1-6.2c1-2.6-6.1-11.7-16.6-21.2 c-2.6-2.3-6.4-6.6-8.6-9.5c-8.3-11.1-22.8-22.8-34.6-27.7c-4.1-1.7-12.8-4.5-19.3-6.2c-10.6-2.7-14.1-3.1-34.1-3.9 c-24.5-0.9-26.3-0.7-42.4,4.6c-8.2,2.7-11.7,4.4-15.2,7.5c-6.3,5.5-17.3,21.7-21.8,31.9c-2,4.7-5.4,11.6-7.4,15.3 c-12.4,23-16,43.8-12.3,70.7c1.1,8,3.1,17.7,4.4,21.5c1.3,3.9,3.6,10.4,5,14.5c4.5,13.3,17.4,27.5,30.4,33.3 c2.5,1.1,11.9,5.7,21,10.3c9.7,4.9,20.2,9.3,25.5,10.8c4.9,1.4,11.7,3.7,15,5C-1.4,682.1,10.6,682.5,23.8,680L23.8,680z M94.4,624.3c0.4-1,0.9-1.5,1.2-1.2s0,1.1-0.7,1.8C93.9,625.9,93.8,625.7,94.4,624.3z M524.3,405.5c-2.9-7.2-7.2-14.4-6-9.9 c1.2,4.2,7.4,17.4,8,16.8C526.6,412.1,525.7,409,524.3,405.5L524.3,405.5z M391.8,249.6c-0.9-0.6-1-1-0.3-1c0.7,0,1.5,0.4,1.8,1 C394.1,250.8,393.7,250.8,391.8,249.6z M705.3,262.5c0.4-0.6-0.1-1.9-1.1-3c-1.5-1.6-1.9-1.7-3.1-0.5c-2.2,2.2-1.7,4.5,1.1,4.5 C703.6,263.6,705,263.1,705.3,262.5L705.3,262.5z"></path></g></svg>
